<svg height="84.778931" viewBox="0 0 84.54394531 84.77893066" width="84.543945" xmlns="http://www.w3.org/2000/svg"><g fill="#f8f6f1"><path d="m42.27197266 1.19998169c7.10986328 0 14.22021484 1.84402466 20.58691406 5.53204346v.00006104c12.67871094 7.34432983 20.48486328 20.88711548 20.48486328 35.53964233v.23547363c0 14.65246582-7.80615234 28.19525146-20.48486328 35.53967285-6.36669922 3.68804932-13.47705078 5.53204346-20.58691406 5.53204346-7.11035156 0-14.22021484-1.84399414-20.58691406-5.53204346-12.67871094-7.34442139-20.48486329-20.88720703-20.48486329-35.53967285v-.23547363c0-14.65252686 7.80615235-28.1953125 20.48486328-35.53964234v-.00006104c6.36669922-3.6880188 13.4765625-5.53204346 20.58691406-5.53204346zm0-1.19998169c-7.43164063 0-14.75830078 1.96884155-21.18847656 5.69366455-13.00439454 7.53320313-21.0834961 21.5491333-21.0834961 36.57806397v.23547363c0 15.02893066 8.07910156 29.0447998 21.08349609 36.57806396 6.43017578 3.72479248 13.75732422 5.69366455 21.18847656 5.69366455s14.7578125-1.96887207 21.18847656-5.69366455c13.00439453-7.53326416 21.08349609-21.5491333 21.08349609-36.57806396v-.23547363c0-15.0289917-8.07910156-29.04486084-21.08349609-36.57800293-6.43066405-3.72488404-13.75732421-5.69372559-21.18847655-5.69372559z"/><path d="m15.69707302 20.80969768-1.31490257-.75916426c-.20634673-.11913511-.46057679-.11913582-.66692418-.00000187l-1.31490682.7591569c-.20634739.11913395-.33346304.33930329-.33346371.57757235l-.00000425 1.51832116c-.00000067.23826906.12711375.45843911.33346047.57757422l1.31490257.75916426c.20634673.11913511.46057679.11913582.66692418.00000187l1.31490682-.7591569c.20634739-.11913395.33346304-.33930329.33346371-.57757235l.00000425-1.51832116c.00000067-.23826906-.12711375-.45843911-.33346047-.57757422z"/><path d="m70.1618639 20.05053143-1.31490708.75915644c-.20634743.11913388-.33346316.33930317-.33346391.57757223l-.00000477 1.51832116c-.00000075.23826906.12711359.45843915.33346027.57757433l1.31490231.75916471c.20634668.11913518.46057675.11913598.66692418.0000021l1.31490708-.75915644c.20634743-.11913388.33346316-.33930317.33346391-.57757223l.00000477-1.51832116c.00000075-.23826906-.12711359-.45843915-.33346027-.57757433l-1.31490231-.75916471c-.20634668-.11913518-.46057675-.11913598-.66692418-.0000021z"/><path d="m19.12889016 17.36817983c-1.51171875-2.00292969-1.24707031-4.26367188.89941406-5.88378906.45996094-.34667969 1.28222656-.83203125 2-1.05761719l1.09179688 1.56738281c-.68164063.09277344-1.484375.44335938-2.21289063.99316406-1.18847656.89746094-1.45800781 2.21386719-.53222656 3.44042969.84667969 1.12109375 2.265625 1.328125 3.56933594.34472656.6796875-.51367188 1.31445313-1.30859375 1.51269531-2.18066406 1.00097656 1.24609375.65917969 2.70703125-.67285156 3.71191406-1.89746094 1.43261719-4.14355469 1.06640625-5.65527344-.93554688z"/><path d="m26.71189798 12.24122671-.10742188-.26757813c-.578125-1.43652344-1.50292969-2.79882813-2.03222656-3.31054688l2.50585938-1.00878906c-.01660156.6015625.16308594 1.78515625.54492188 2.99023438l1.65722656-.64160156 1.59472656-.66796875c-.55957031-1.13378906-1.25097656-2.11035156-1.68066406-2.53369141l2.50683594-1.00927734c-.01660156.73144531.26171875 2.35449219.84082031 3.79101563l.10742188.26757813c.578125 1.43652344 1.46484375 2.73632813 2.02148438 3.31542969l-2.50683594 1.00878906c.00292969-.76464844-.22070313-2.18847656-.73535156-3.56152344l-1.64550781.63769531-1.65820313.70605469c.57617188 1.33398438 1.390625 2.52148438 1.92285156 3.0703125l-2.50585938 1.00976563c0-.80273438-.25097656-2.35839844-.83007813-3.79589844z"/><path d="m35.48631204 10.17970327-.13574219-1.3125c-.15917969-1.5390625-.67089844-3.10253906-1.02636719-3.74121094l2.68457031-.27832031c-.22949219.69921875-.41015625 2.33398438-.25 3.87304688l.05859375.57324219c.13769531 1.32421875.93066406 1.88085938 2.10058594 1.75976563 1.15722656-.11914063 1.75878906-.83300781 1.62304688-2.14550781l-.05957031-.57226563c-.15917969-1.54003906-.67089844-3.10302734-1.0390625-3.74023438l2.68554688-.27832031c-.21777344.69824219-.3984375 2.33300781-.23828125 3.87207031l.02929688.28710938c.15917969 1.53808594.65234375 3.03125 1.02636719 3.74023438l-2.04003906.2109375-.13574219-1.3125c-.40820313 1.06738281-1.265625 1.63867188-2.36328125 1.75292969-1.5390625.15917969-2.69726563-.54101563-2.91992188-2.68847656z"/><path d="m44.9482261 8.61915639.04589844-.28515625c.24414063-1.52929688.15332031-3.17285156-.03710938-3.88427734l3.90039063.62255859c1.76660156.28173828 2.37695313 1.18164063 2.1875 2.3671875-.12304688.77050781-.63574219 1.39453125-1.34082031 1.62207031.7890625.39355469 1.19628906 1.11425781 1.05078125 2.02734375-.21972656 1.37597656-1.31152344 2.125-3.14941406 1.83203125l-3.90136719-.62207031c.4140625-.68847656 1-2.15136719 1.24414063-3.6796875zm1.34472656.56640625c-.09863281.68945313-.16503906 1.3359375-.20800781 1.91210938l1.76660156.28222656c.94824219.15136719 1.38964844-.1796875 1.47851563-.73730469.08886719-.55664063-.22753906-1.00878906-1.17578125-1.16015625zm.51660157-2.85986328c-.1015625.48242188-.21386719 1.03662109-.3203125 1.62744141l1.86132813.296875c.69921875.11132813 1.10058594-.18945313 1.17773438-.67578125.07421875-.46191406-.21679688-.84912109-.91601563-.9609375z"/><path d="m53.19236673 10.31349233.11425781-.26464844c.61425781-1.42089844.93261719-3.03515625.92382813-3.77148438l3.625 1.56640625c1.64160156.70898438 2.00976563 1.73144531 1.53417969 2.83300781-.30957031.71582031-.95996094 1.19335938-1.69921875 1.24023438.66601563.57519531.8828125 1.375.51660156 2.22363281-.55273438 1.27734375-1.79589844 1.734375-3.50292969.99609375l-3.625-1.56640625c.5703125-.56347656 1.49902344-1.8359375 2.11328125-3.25683594zm1.16210937.88085938c-.26464844.64355469-.48925781 1.25292969-.67382813 1.80078125l1.64160156.70898438c.88183594.38085938 1.39160156.16992188 1.61523438-.34765625s.02832031-1.03417969-.85351563-1.41503906l-1.72949219-.74707031zm1.20703125-2.64160157c-.21679688.44140625-.46289063.95019531-.71191406 1.49609375l1.72949219.74707031c.65039063.28125 1.11230469.08886719 1.30761719-.36328125.18554688-.4296875 0-.87597656-.65039063-1.15722656z"/><path d="m61.34178079 16.06349233.44238281-3.16796875c.14453125-1.03808594.25488281-2.32910156.21875-3.11230469l2.19335938 1.67773438c-.55664063.70800781-1.015625 1.82226563-1.140625 2.87597656l-.17578125 1.31640625c1.32226563-.22753906 2.79394531-.94628906 3.69140625-2.37597656l1.88867188 1.44433594c-1.35449219 1.01953125-4.4609375 2.13574219-5.91992188 2.36425781-.54199219.88574219-.90527344 1.75683594-1.0546875 2.30761719l-2.14550781-1.640625c.5-.29882813 1.26660156-.90625 2.00195313-1.68945313z"/><path d="m13.24119485 61.97950796.22363281-.18261719c1.19824219-.98046875 2.22265625-2.26757813 2.55371094-2.92578125l1.70996094 2.09082031c-.58007813.1640625-1.65625.68652344-2.69238281 1.41015625l1.10546875 1.390625 1.11328125 1.32324219c.91503906-.87207031 1.64160156-1.82324219 1.91699219-2.35839844l1.70996094 2.09082031c-.703125.20214844-2.16894531.95117188-3.3671875 1.93164063l-.22265625.18261719c-1.19921875.97949219-2.17578125 2.21289063-2.5625 2.91601563l-1.70898438-2.09082031c.73046875-.22558594 2.02246094-.86328125 3.1796875-1.76269531l-1.09863281-1.38085938-1.16796875-1.37109375c-1.1015625.94726563-1.99121094 2.078125-2.35742188 2.74902344l-1.70996094-2.09082031c.76660156-.23828125 2.17675781-.94140625 3.375-1.921875z"/><path d="m18.88279641 68.38282827c1.45117188-2.04394531 3.71289063-2.453125 5.70800781-1.03710938s2.35449219 3.68652344.90332031 5.73046875c-1.45117188 2.04492188-3.71289063 2.45410156-5.70800781 1.03808594s-2.35449219-3.68652344-.90332031-5.73144531zm5.33984375 3.79101562c.88183594-1.2421875.56054688-2.52929688-.65234375-3.390625-1.21289063-.86035156-2.53417969-.73925781-3.41601563.50292969-.79882813 1.12402344-.56054688 2.52929688.65234375 3.390625 1.21289063.86035156 2.61816406.62207031 3.41601563-.50292969z"/><path d="m27.4013511 74.10646108.09765625-.27050781c.52734375-1.45507813.74902344-3.08398438.6953125-3.81835938.32324219-.01074219.70410156.06445313 1.14453125.22363281 1.51074219.54785156 2.67773438 2.36230469 3.08886719 4.32324219.31933594-1.16015625.43554688-2.29199219.40136719-2.86621094l2.53710938.92089844c-.49902344.53320313-1.37402344 1.92480469-1.90234375 3.37988281l-.09765625.27050781c-.52734375 1.45507813-.73535156 3.01269531-.70703125 3.81445313l-2.53710938-.92089844c.46191406-.39355469 1.09960938-1.13183594 1.41894531-2.01171875.44140625-1.21777344-.70507813-3.64941406-1.90722656-4.69824219-.26367188.51757813-.55859375 1.18847656-.80371094 1.86523438l-.09863281.27050781c-.52734375 1.45507813-.73535156 3.01269531-.70703125 3.81445313l-2.53710938-.92089844c.53613281-.59667969 1.38574219-1.92089844 1.9140625-3.37597656z"/><path d="m36.18553079 76.83204702.02929688-.28613281c.15527344-1.5390625-.02929688-3.17382813-.25976563-3.87207031l5.6796875.57421875.12890625 1.94140625c-.58984375-.24023438-1.74609375-.48925781-2.91601563-.60742188l-.93066406-.09472656c-.08300781.46191406-.15820313.97265625-.2265625 1.53222656.89550781.07910156 2.22363281.17675781 3.1640625.17480469l-.15332031 1.515625c-.88378906-.19726563-2.21484375-.37988281-3.13378906-.47363281-.05957031.70605469-.08984375 1.36523438-.08886719 1.95605469l.53613281.0546875c1.80175781.18164063 2.91601563.13769531 3.51367188-.0546875l-.53710938 1.97070313-5.83398438-.58984375c.37304688-.70996094.87304688-2.20214844 1.02832031-3.74121094z"/><path d="m46.0966636 78.34571889-1.91308594-2.56152344c-.62792969-.83886719-1.45703125-1.83398438-2.03320313-2.36425781l2.73730469-.3515625c.10253906.89453125.56054688 2.00878906 1.21191406 2.84472656l.80078125 1.05859375c.77929688-1.09179688 1.31933594-2.63671875.95117188-4.28320313l2.35644531-.30175781c-.24511719 1.67675781-1.66601563 4.65332031-2.54101563 5.84179688.23828125 1.00976563.59179688 1.88378906.87304688 2.37988281l-2.67773438.34375c.14550781-.56347656.26269531-1.53417969.234375-2.60644531z"/><path d="m54.82615579 75.04786733-.12402344-.25976563c-.66699219-1.39746094-1.67480469-2.69921875-2.23535156-3.17675781l3.56445313-1.70117188c1.61425781-.77148438 2.62695313-.37695313 3.14453125.70703125.3359375.70410156.26757813 1.5078125-.18261719 2.09570313.87207031-.12402344 1.6171875.23925781 2.015625 1.07324219.59960938 1.25683594.12597656 2.49414063-1.55273438 3.29589844l-3.56445313 1.70117188c-.04980469-.80078125-.3984375-2.33691406-1.06542969-3.73535156zm.23046875-2.94335937c.19042969.45410156.41210938.97363281.66015625 1.52050781l1.70117188-.81152344c.63867188-.30566406.79785156-.78027344.5859375-1.22460938-.20214844-.42285156-.66113281-.57617188-1.29980469-.27050781l-1.64746094.78613281zm1.19824219 2.64746093c.31054688.62304688.62207031 1.19238281.9140625 1.69238281l1.61425781-.77050781c.86621094-.4140625 1.04296875-.9375.79980469-1.44628906-.24316406-.50976563-.76074219-.70117188-1.62792969-.28710938z"/><path d="m62.1201011 71.18360952-.1796875-.22460938c-.96875-1.20703125-2.24609375-2.2421875-2.90039063-2.57910156l4.453125-3.57324219 1.453125 1.29394531c-.58984375.24316406-1.58886719.87597656-2.50488281 1.61132813l-.73046875.5859375c.265625.38671875.56933594.80371094.91308594 1.25097656.69335938-.57226563 1.70898438-1.43359375 2.37890625-2.09375l.953125 1.1875c-.76855469.47949219-1.84667969 1.28222656-2.56640625 1.86035156.45214844.54492188.89257813 1.03613281 1.30761719 1.45703125l.42089844-.33789063c1.41210938-1.1328125 2.17578125-1.9453125 2.46679688-2.50195313l.99902344 1.78125-4.57324219 3.67089844c-.23242188-.76757813-.921875-2.18261719-1.890625-3.38867188z"/><path d="m68.04392923 66.02052358-.22558594-.1796875c-1.21191406-.96289063-2.68847656-1.68945313-3.40136719-1.87207031l3.55175781-4.47460938 1.70507813.94042969c-.52148438.3671875-1.35546875 1.20605469-2.08691406 2.12695313l-.58203125.73339844c.34375.31933594.73339844.65917969 1.16796875 1.01953125.54980469-.71289063 1.34960938-1.77832031 1.85644531-2.57128906l1.19433594.94726563c-.64453125.63769531-1.51757813 1.66113281-2.09179688 2.38476563.56152344.43066406 1.10058594.8125 1.59863281 1.13183594l.3359375-.42285156c1.12695313-1.41992188 1.69140625-2.38183594 1.8515625-2.98925781l1.37011719 1.51660156-3.6484375 4.59667969c-.39648438-.69824219-1.3828125-1.92578125-2.59570313-2.88769531z"/><path d="m67.91378288 52.68031362c0 2.79290771-1.48999023 5.37371826-3.90869141 6.7701416l-17.82421875 10.29083252c-2.41894531 1.39648438-5.39892578 1.39648438-7.81762695 0l-17.82421875-10.29083252c-2.41870117-1.39642334-3.90893555-3.97723389-3.90893555-6.7701416v-20.58166504c0-2.79296875 1.49023438-5.37371826 3.90893555-6.77020264l17.82421875-10.29083252c2.41870117-1.39648438 5.39868164-1.39648438 7.81762695 0l17.82421875 10.29083252c2.41870117 1.39648438 3.90869141 3.97723389 3.90869141 6.77020264z"/><path d="m34.55508239 29.89622364c0-1.09342675.58779935-2.11247889 1.53547585-2.65949216l4.64601404-2.68228438c.47383825-.27350664 1.00405726-.41025995 1.53547585-.41025995s1.0616376.13675332 1.53547585.41025995l4.64601404 2.68228438c.94647691.54701327 1.53547585 1.56606541 1.53547585 2.65949216v5.36396896c0 1.09342675-.58779935 2.11247889-1.53547585 2.65949216l-4.64601404 2.68228438c-.9476765.54701327-2.1232752.54701327-3.0709517 0l-4.64601404-2.68228438c-.9476765-.54701327-1.53547585-1.56606541-1.53547585-2.65949216z"/><path d="m28.79671426 57.78320407c-.57037048.32929999-1.27310213.32926192-1.84343692-.00009987l-3.91705182-2.26205244c-.569862-.32908876-.9208967-.93717149-.9208967-1.59523084v-9.35920515c0-.65811614.3510947-1.26624236.92103419-1.59531048l9.36829936-5.40901027c.60453891-.34904491 1.39464377-.23396546 1.8202454.31935442.00340436.00442597.00681751.00884559.01023943.01325883.1665954.21485751.17938541.50006346.01065591.71324913-1.92715034 2.43490831-3.11795081 5.73580914-3.11795081 9.37309275 0 2.0992812.65713675 3.98633553 1.66152081 5.61896949.46305471.75269896.25096914 1.73295112-.51436393 2.1748116l-3.47829493 2.00817283z"/><path d="m62.42876745 53.92537193c0 .65833719-.35118291 1.26667666-.92128551 1.59590436l-3.91634458 2.26164402c-.57015844.32925995-1.27266531.32933005-1.84288945.00018389l-3.47895517-2.00813094c-.76542133-.44181836-.97756375-1.42213289-.51448904-2.17488456 1.00433864-1.63260391 1.66144026-3.51961347 1.66144026-5.61883854 0-3.63728278-1.19079993-6.93818293-3.11794949-9.37309109-.16873005-.21318646-.15594096-.49839459.01065682-.71325146.00342283-.00441434.00683689-.00883506.01024216-.01326214.42560398-.55331375 1.21570347-.66839183 1.82023946-.31934874l9.36830026 5.40900871c.56993953.32906801.92103428.9371942.92103428 1.59531032v9.35875616z"/></g><path d="m62.12176614 41.9071778-10.70403997-6.1803445c-.07137564-.04123592-.20033162-.3406837-.20033162-.46664071v-5.36396896c0-1.53613344-.81952453-2.95557712-2.14986188-3.72363212l-.93231534-.53826156c-.47699075-.27538514-.69099172-.91639959-.45708577-1.4150429.39364468-.83917612.96580363-1.57508908 1.6798977-2.12639968.35507879-.27350664.63338379-.40906036.90209206-.44024972.23571954-.0284153.55511051.04985798.73414939.27425638.00209928.00277405.00629785.00299898.00839713.005848.20632957.26990786.59259771.31849128.86130599.11276151.26870827-.20692936.31909108-.59259771.11276151-.86130599-.41625791-.53981573-1.13961098-.83911356-1.8581657-.75154345-.65017806.07497441-1.17319952.42825381-1.51028445.68736536-.88372157.68251496-1.5826248 1.59542587-2.05515629 2.63339504-.18829058.41360167-.69963656.56363179-1.09319766.33641089l-1.03821898-.59941153c-1.33025914-.76801974-2.96920762-.76799444-4.29944305.00006637l-1.03829063.59949564c-.3934946.22719871-.90474867.07727597-1.09312252-.33621229-.47263471-1.03745234-1.17184712-1.95042261-2.05624459-2.63374412-.33588534-.25911155-.8589068-.61239095-1.50908486-.68736536-.70415963-.08577072-1.44310738.21172772-1.8581657.75154345-.20632957.26870827-.15594677.65437662.11276151.86130599.26750868.20632957.65377683.15774615.86130599-.11276151.00209928-.00284903.00629785-.00299898.00869703-.00577303.17903888-.22447337.51342474-.30394625.73384949-.27433135.26870827.03118935.54701327.16674308.90089247.43964992.71462087.55245481 1.2870662 1.28832596 1.68077481 2.12694988.24128768.51395784.03471442 1.13134135-.45699854 1.41522648l-.93208064.53812661c-1.3303371.76805564-2.14986133 2.18749954-2.14986133 3.72363308v5.36396896c0 .125957-.12895598.42540478-.20033162.46664071l-10.70403997 6.1803445c-.95010143.54857364-1.53538199 1.56233917-1.53538199 2.65943796v9.35920515c0 1.09701303.58518983 2.11071289 1.5351741 2.6593179l3.91696476 2.26200216c.47383825.27350664 1.00525685.41025995 1.53547585.41025995.5314186 0 1.06283719-.13675332 1.53547585-.41025995l1.32013748-.76217501c.60351056-.34843391 1.34705914-.34845432 1.95058882-.00005353l8.3635358 4.82803502c.76012964.43880156 1.69660509.43879417 2.45672781-.00001937l8.36304208-4.82792581c.60345411-.34836985 1.34690625-.34840432 1.95039267-.00009045l1.3195942.76162935c.47263866.27410643 1.00405726.41085975 1.53547585.41085975.530219 0 1.0616376-.13675332 1.53547585-.41025995l3.91666301-2.2618279c.950171-.54871284 1.53547585-1.56261195 1.53547585-2.65984061v-9.3588567c0-1.0970988-.58528056-2.11086433-1.53538199-2.65943796zm-27.56668375-12.01095416c0-1.09342675.58779935-2.11247889 1.53547585-2.65949216l4.64601404-2.68228438c.47383825-.27350664 1.00405726-.41025995 1.53547585-.41025995s1.0616376.13675332 1.53547585.41025995l4.64601404 2.68228438c.94647691.54701327 1.53547585 1.56606541 1.53547585 2.65949216v5.36396896c0 1.09342675-.58779935 2.11247889-1.53547585 2.65949216l-4.64601404 2.68228438c-.9476765.54701327-2.1232752.54701327-3.0709517 0l-4.64601404-2.68228438c-.9476765-.54701327-1.53547585-1.56606541-1.53547585-2.65949216zm-5.75836813 27.88698043c-.57037048.32929999-1.27310213.32926192-1.84343692-.00009987l-3.91705182-2.26205244c-.569862-.32908876-.9208967-.93717149-.9208967-1.59523084v-9.35920515c0-.65811614.3510947-1.26624236.92103419-1.59531048l9.36829936-5.40901027c.60453891-.34904491 1.39464377-.23396546 1.8202454.31935442.00340436.00442597.00681751.00884559.01023943.01325883.1665954.21485751.17938541.50006346.01065591.71324913-1.92715034 2.43490831-3.11795081 5.73580914-3.11795081 9.37309275 0 2.0992812.65713675 3.98633553 1.66152081 5.61896949.46305471.75269896.25096914 1.73295112-.51436393 2.1748116l-3.47829493 2.00817283zm33.63205319-3.85783214c0 .65833719-.35118291 1.26667666-.92128551 1.59590436l-3.91634458 2.26164402c-.57015844.32925995-1.27266531.32933005-1.84288945.00018389l-3.47895517-2.00813094c-.76542133-.44181836-.97756375-1.42213289-.51448904-2.17488456 1.00433864-1.63260391 1.66144026-3.51961347 1.66144026-5.61883854 0-3.63728278-1.19079993-6.93818293-3.11794949-9.37309109-.16873005-.21318646-.15594096-.49839459.01065682-.71325146.00342283-.00441434.00683689-.00883506.01024216-.01326214.42560398-.55331375 1.21570347-.66839183 1.82023946-.31934874l9.36830026 5.40900871c.56993953.32906801.92103428.9371942.92103428 1.59531032v9.35875616zm-10.70993971-6.90480747-8.52459422 4.9215839c-.57009416.3291378-1.27247434.32913833-1.84256899.00000137l-8.52578603-4.92225503c-.25214904-.14557507-.40195238-.430488-.36964843-.71984538.01352338-.12113351.02850445-.24167599.04491166-.36161192.14973316-1.09454265 1.3736326-1.68095796 2.33038803-1.12863318l4.67756155 2.70030676c1.71022938.98729731 3.81724915.98726169 5.52744514-.00009345l4.67655283-2.69993526c.9567713-.55237708 2.18070654.03407057 2.33043366 1.12865431.01642382.12006673.03141895.24074044.04495376.362005.03229577.28935259-.11750503.57425027-.36964894.71982288zm-17.16649196-6.74620237c.49051002-.75169814 1.50668106-.95439842 2.28401789-.50562495l3.28632817 1.89726878c.66337355.38266937 1.40592008.57400406 2.14966619.57400406s1.48629264-.19133469 2.14966619-.57400406l3.28632812-1.89726875c.77733687-.44877349 1.79350799-.24607319 2.28401795.50562504.0124119.01902103.02477824.03809007.03709869.05720709.22186799.34426152.09332761.80817747-.26135399 1.01297581l-6.57387177 3.7958496c-.57004387.32915166-1.27238846.32917692-1.84245601.00006627l-6.57511282-3.7959355c-.35471427-.20478317-.48327917-.66872327-.26139839-1.01300118.01231088-.01910199.02466758-.03815606.03706977-.05716221zm8.66918824 18.41810669c-.58705619.33889905-1.31031273.33889057-1.89736096-.00002225l-3.953964-2.28268995c-1.105702-.63834037-2.11168386-1.4540369-2.88378617-2.4708522-.43704207-.57555981-.82885365-1.19524043-1.15347514-1.85735707-.27444055-.55976471.33484604-1.14175191.87476796-.83008148l5.30168352 3.0604017c1.71021564.98722356 3.81717817.98714933 5.52732425-.00019473l5.300303-3.06010273c.5399189-.31171941 1.14919628.2702399.87480424.83005273-.3249768.66301553-.71738266 1.2834728-1.15514539 1.85968534-.77205369 1.01622862-1.77765639 1.83154188-2.88294328 2.46960803l-3.95220803 2.2815526z" fill="#43431a"/><path d="m36.60518257 34.89911586c.05997953 0 .12115864-.00899693.18233776-.02759058 3.54718913-1.10122409 7.47224928-1.15220668 11.047029-.14395086.32988739.09056908.66457314-.09896622.7581412-.42465504.09236847-.32688841-.09836642-.66577273-.42465504-.7581412-.26031114-.07332497-.52602044-.12835618-.78963045-.19118474.1514483-.53591706.25701227-1.09837506.25701227-1.69037298 0-2.49274908-1.35073891-4.44568243-3.07575006-4.44568243-.83341551 0-1.60265292.47571261-2.16676036 1.28348687-.54851276-.75101863-1.2892599-1.21331083-2.12177571-1.21331083-1.72381156 0-3.07455047 1.95293335-3.07455047 4.44628222 0 .58719955.10316478 1.1507072.25371339 1.68669923-.34428248.08704529-.68916475.17251611-1.02744927.27763023-.32388944.1007656-.5050276.44444828-.404262.76833772.08157215.26390991.32388944.43245238.58659976.43245238zm7.95448466-6.45319715c1.00165807 0 1.84736938 1.47309714 1.84736938 3.21730174 0 .51192525-.09356806.99183643-.23002148 1.441308-.40846057-.07160056-.81812073-.13450409-1.23077986-.18158801.17963868-.47713712.29180039-1.03472179.29180039-1.64261428 0-1.21241113-.41775739-2.25073169-1.01935203-2.75141078.11306141-.04063613.22612281-.08299667.3409836-.08299667zm-4.28853606.07017605c1.00165807 0 1.84736938 1.47369694 1.84736938 3.21790154 0 .36759952-.04888331.71907954-.12115864 1.06036304-.32448923.00862206-.64837867.02346699-.97226811.04700895.11905936-.40906036.1895353-.8653546.1895353-1.35201348 0-1.37053216-.53291808-2.51794048-1.2637686-2.91492996.10466427-.03358853.21112793-.05833009.32029067-.05833009z" fill="#43431a"/><path d="m45.10907969 35.21640755c-.21292732.19193448-.442349.35980218-.67686894.51829807-.8472108.5724296-1.81677983.92765834-2.80794148 1.00278269-.44144931.03598772-.75214325-.00539816-.99326094-.12715659-.20902865-.10503914-.43964992-.34728145-.46454142-.63308389-.0002999-.00299898-.00179939-.00569805-.00209928-.00869703-.0251914-.33948411-.33948411-.59919546-.65617601-.5686059-.33948411.02399181-.5937973.31789148-.56980549.65617601.04918321.67836843.49543088 1.32614731 1.13841139 1.65063654.43185258.21772568.88769698.27110746 1.26676758.27110746.13555373 0 .26271032-.00719754.37427224-.01559468 1.53427626-.11576048 3.03136522-.76713813 4.21416146-1.8329743.25191401-.2273224.27230705-.61598973.04438485-.86790373s-.61538993-.27230705-.86730394-.04498464z" fill="#43431a"/><path d="m51.71882774 47.02056446-8.52459422 4.9215839c-.57009416.3291378-1.27247434.32913833-1.84256899.00000137l-8.52578603-4.92225503c-.25214904-.14557507-.40195238-.430488-.36964843-.71984538.01352338-.12113351.02850445-.24167599.04491166-.36161192.14973316-1.09454265 1.3736326-1.68095796 2.33038803-1.12863318l4.67756155 2.70030676c1.71022938.98729731 3.81724915.98726169 5.52744514-.00009345l4.67655283-2.69993526c.9567713-.55237708 2.18070654.03407057 2.33043366 1.12865431.01642382.12006673.03141895.24074044.04495376.362005.03229577.28935259-.11750503.57425027-.36964894.71982288z" fill="#ffc637"/><path d="m34.55233578 40.27436209c.49051002-.75169814 1.50668106-.95439842 2.28401789-.50562495l3.28632817 1.89726878c.66337355.38266937 1.40592008.57400406 2.14966619.57400406s1.48629264-.19133469 2.14966619-.57400406l3.28632812-1.89726875c.77733687-.44877349 1.79350799-.24607319 2.28401795.50562504.0124119.01902103.02477824.03809007.03709869.05720709.22186799.34426152.09332761.80817747-.26135399 1.01297581l-6.57387177 3.7958496c-.57004387.32915166-1.27238846.32917692-1.84245601.00006627l-6.57511282-3.7959355c-.35471427-.20478317-.48327917-.66872327-.26139839-1.01300118.01231088-.01910199.02466758-.03815606.03706977-.05716221z" fill="#ffc637"/><path d="m43.22152402 58.69246878c-.58705619.33889905-1.31031273.33889057-1.89736096-.00002225l-3.953964-2.28268995c-1.105702-.63834037-2.11168386-1.4540369-2.88378617-2.4708522-.43704207-.57555981-.82885365-1.19524043-1.15347514-1.85735707-.27444055-.55976471.33484604-1.14175191.87476796-.83008148l5.30168352 3.0604017c1.71021564.98722356 3.81717817.98714933 5.52732425-.00019473l5.300303-3.06010273c.5399189-.31171941 1.14919628.2702399.87480424.83005273-.3249768.66301553-.71738266 1.2834728-1.15514539 1.85968534-.77205369 1.01622862-1.77765639 1.83154188-2.88294328 2.46960803l-3.95220803 2.2815526z" fill="#ffc637"/></svg>